<svg xmlns="http://www.w3.org/2000/svg" role="img" class="u-svg-ico" viewBox="0 0 45 45" aria-label="Credibility"><path d="M22.5 15.85a1.35 1.35 0 011.4.3l6.6 6.45v-.94c0-2.4 2.01-4.36 4.48-4.36a4.43 4.43 0 014.48 4.36v1.2c0 1-.35 1.92-.93 2.66h.71a5.7 5.7 0 015.76 5.6v11.35c0 .47-.4.86-.88.86h-3.71a.9.9 0 01-.25-.04.9.9 0 01-.26.04h-9.84a.87.87 0 01-.88-.86V32.12l-5.6-8.1a11.4 11.4 0 01-1.08-1.96c-.29.68-.65 1.33-1.08 1.95l-5.6 8.1v10.36c0 .47-.4.86-.88.86H5.1a.9.9 0 01-.26-.04.9.9 0 01-.25.04H.88a.87.87 0 01-.88-.86V31.12a5.7 5.7 0 015.76-5.6h.7a4.27 4.27 0 01-.92-2.65v-1.21c0-2.4 2.01-4.36 4.48-4.36a4.43 4.43 0 014.48 4.36v.94l6.6-6.45c.38-.35.92-.47 1.4-.3zm.88 2.23c.06 1.78.63 3.5 1.66 4.98l5.75 8.32c.1.14.15.3.15.48v9.75h8.08v-6.33c0-.48.4-.86.88-.86.49 0 .88.38.88.86v6.33h2.46V31.12c0-2.14-1.8-3.9-4-3.9h-6.1a.89.89 0 01-.63-.24zm-1.76 0l-9.13 8.9-.09.07a.89.89 0 01-.53.18H5.76c-2.2 0-4 1.75-4 3.9V41.6h2.46v-9.75c0-.48.4-.86.88-.86s.88.38.88.86v9.75h8.08v-8.52c.01-.32.06-1.57.15-1.7l5.75-8.32a9.26 9.26 0 001.66-4.98zm-11.6.93a2.69 2.69 0 00-2.72 2.65v1.2a2.69 2.69 0 002.72 2.66 2.7 2.7 0 002.72-2.65v-1.21A2.69 2.69 0 0010.02 19zm24.96 0a2.69 2.69 0 00-2.72 2.65v1.2a2.69 2.69 0 002.72 2.66 2.7 2.7 0 002.72-2.65v-1.21A2.69 2.69 0 0034.98 19zm-4-11.26a.8.8 0 01.09 1.05l-.08.09-2.06 2.06a.8.8 0 01-1.14 0 .8.8 0 01-.08-1.06l.08-.09 2.05-2.05a.8.8 0 011.15 0zm-14.96-.12l.1.06 2 1.5c.33.25.33.65 0 .9a1.04 1.04 0 01-1.08.06l-.1-.07-2-1.5c-.33-.24-.33-.64 0-.89.3-.22.75-.24 1.08-.06zM22.96 2c.47 0 .86.36.91.82v5.6c0 .51-.4.93-.91.93a.92.92 0 01-.91-.82v-5.6c0-.52.4-.93.9-.93z"/></svg>